<svg version="1" xmlns="http://www.w3.org/2000/svg" width="601.333" height="601.333" viewBox="0 0 451.000000 451.000000"><path d="M232.6 28.5c-3.1 1.2-4.7 1.3-8.3.4-6.3-1.6-22.5-.6-29.8 1.9-3.3 1.1-8.5 2.5-11.5 3-6.8 1.2-15.2 6-29 16.6-42.7 32.7-49.3 45.2-44.6 85.1.8 6.6 1.8 17.7 2.2 24.7l.7 12.8h-2.6c-3.5 0-4.7 2.5-4.7 10 0 12.1 4.3 32 9.4 43.3 2.8 6.3 8 11.4 12 11.9 2.9.3 3.1.7 5.2 9 1.2 4.9 1.9 8.8 1.7 8.8-.3 0-.1.6.5 1.3.6.7 1.3 2.6 1.6 4.2.2 1.7.5 3 .6 3 .1 0 .4 1.1.6 2.5 2.5 13.5 8.7 26.4 15.3 31.5 4.3 3.4 19.3 11.3 23 12 3.5.7 7.2 2.5 7.7 3.9.3.7.1 2.8-.3 4.6-.8 2.8-1.6 3.6-5.8 5-8.1 2.8-14.8 6.5-20.2 11.4-5.6 5.1-15.4 9.2-38.8 16.4-20.7 6.4-29.7 8-72.5 12.7-16.5 1.8-28.5 4.3-38 7.7l-6.5 2.3-.3 38.3L0 451h73c42.6 0 73-.4 73-.9s-.9-6.1-2-12.5c-3.4-19.8-4.2-39.5-2.5-60 1.6-20.5 3.3-27 8-31.6l3.2-3.1.6 7.7c1.5 17.6 8.9 43.2 19.8 68.6 9.7 22.5 14.6 31.8 16.9 31.8 1.8 0 8-9.6 18.9-29.5 1.9-3.3 3.5-6.1 3.6-6.3.2-.2 3.1 2.3 6.4 5.6 3.3 3.3 8.1 7.3 10.6 9 2.5 1.7 4.2 3.2 3.7 3.4-.7.3-10.6 13.3-12.6 16.6-.4.7-.2 1.2.6 1.2.7 0 4.1-4 7.6-8.8 7.7-10.8 9.6-11.2 16.6-3.6l4.4 4.9-4.1 3.8-4.2 3.9 4.7-3.7 4.8-3.7 4.5 3.7c2.5 2 5.3 3.5 6.2 3.3 1.3-.2.1-1.6-4.2-5-3.3-2.5-7.9-6.6-10.3-9l-4.3-4.4 3.6-3.7c1.9-2 3.5-4.1 3.5-4.7 0-.5.4-1 .9-1 .4 0 2.4-2.2 4.3-4.9l3.4-4.9 7.7 15.4c4.2 8.5 8.1 15.4 8.6 15.4 1.3 0 7.3-6.9 12.1-14 4.9-7.2 10.6-19.8 14.4-31.7 2.7-8.8 8-33.1 9.2-42.8 1.2-9.8 2.2-3.1 2.3 16 .1 24.6-2.2 41.2-9.6 68.7-1.7 6.6-3.1 9.8-4.2 10.1-.9.3 32.9.5 75.2.6l76.7.1V375.3l-5.2-.7c-20.7-2.8-51.2-12-96.8-29.1-25.1-9.5-33-13.2-40.7-19-7.2-5.3-14.1-8.4-20.7-9.2-4.5-.6-5-.9-6.7-4.7-2.8-6.1-2.5-7.1 3.4-10.4 8.1-4.6 15.6-10.9 18.7-15.9 4.1-6.5 6.1-16.9 10.6-54.8.4-3.6 1-4.3 5.3-6.7 5.8-3.2 10.4-9.6 13.2-18.8 4.5-14.5 5-33.2 1.1-41.1-1.8-3.5-1.9-5-1.1-15.6 3-40.9-6.7-73-26.4-87.9-5.3-4-16.1-8.4-20.6-8.4-1 0-2.5-2-4-5.2-3-6.5-10.2-13.8-17.2-17.4-4.8-2.5-6.6-2.8-16.4-3.1-7.8-.2-12.1.2-14.9 1.2zm53.7 77.2l5.8.5 4.4 6.6c5.1 7.6 5.5 9.2 2.1 9.2-3.3 0-4.9 2.3-4.1 5.9.5 2.5.2 3.3-1.9 4.6-1.4 1-2.6 2.3-2.6 3 0 .6 2.3 3.8 5 6.9 8.2 9.4 10.1 14.5 12.1 31.6.5 4.7 1.4 8.9 1.9 9.4s1.9-1.3 3.5-4.3c3.5-7.1 11.4-15.1 14.7-15.1 3.9 0 5.8 5.7 5.8 17.1 0 22.7-7.8 40-19.8 44-2 .7-3 1.5-2.5 2 2 2-4.2 46.8-7.6 54.4-3.4 7.6-12.3 15.1-26.6 22.2-39.1 19.3-39 19.3-50.1 19.3-8.3 0-18.1-2.6-38.4-10.2-33.6-12.5-41.8-19.2-47.4-38.6-.8-2.8-1.2-5.2-.9-5.2.3 0 0-.7-.7-1.5s-.9-1.5-.5-1.5.2-.6-.4-1.3c-.6-.8-.8-1.7-.4-2 .3-.4 0-1.3-.7-2.2-.7-.8-1-1.5-.7-1.5.2 0-.8-4.7-2.3-10.4-2.6-9.5-2.7-10.5-1.2-12 2.4-2.3.9-2.9-3.2-1.2-3.4 1.4-3.7 1.4-6.6-1.1-7-5.9-14.3-27.8-15.7-47.2-.5-7.3-.3-8.8 1.1-10 1.3-1.1 2.1-1.1 4.6-.1 3.4 1.4 11.1 9.7 13.5 14.5.8 1.6 2.3 4.1 3.4 5.5 2.7 3.4 2.8 2.6 4-15.7.9-14.3 1.2-15.5 4.5-22.5 3-6.1 3.6-8.4 3.6-14 0-7.2.5-7.9 7.8-12 4.1-2.2 6.5-6.2 7.2-11.7.5-4.5.6-4.6 3.9-4.3 2 .1 5.3-.7 8-2 6.5-3.1 19.3-3.6 35.3-1.2 6.8 1 17 1.8 22.8 1.8 9.3-.1 11.5-.4 19.5-3.4 17.6-6.5 25.1-7.7 39.8-6.3zm-8.7 204.8c.3 1.9 1.9 5.4 3.4 7.9l2.9 4.5-6.1 9.2c-7.4 11.2-24.6 29-33.8 34.9-6 3.8-6.9 4.1-12 3.8-12-.8-26.3-10.3-40.4-26.7-10.1-11.8-10.7-12.7-9.4-16 .6-1.5 1.3-5.1 1.7-8.2l.6-5.6 15 5c12.5 4.2 16.5 5.1 24.1 5.5 10.7.5 16.2-.8 29.3-7 14.1-6.7 22.6-10.6 23.3-10.7.4-.1 1 1.5 1.4 3.4zm18.9 11.9c3.9 1.8 8.5 4.7 10.3 6.4 3 2.8 3.2 3.5 3.2 9.3 0 7.6-4.1 32.1-8 47.5-4 16-10.8 31.9-18.5 43.4-3.6 5.5-7 10.2-7.5 10.5-.5.3-4.5-6.3-8.8-14.7-11-21.4-20.3-38.5-24.7-45.7-2.1-3.4-3.6-6.2-3.4-6.4 18.3-11.4 38-32 45.6-47.9 1.6-3.2 3.3-5.8 3.8-5.8.6 0 4.2 1.5 8 3.4zM179 328.8c0 4.4 5.4 11.7 17.9 24.3 9.3 9.2 13.1 12.3 19 15.2 4 2 8 3.7 8.8 3.7.8 0 2.3.5 3.3 1 1.8 1 1.4 2.1-5.6 16.8-6.8 14.3-19.5 38-29 54.3-2.3 3.9-3.9 5.8-4.2 4.9-.3-.8-3.6-8.3-7.4-16.5-16.2-34.8-24.9-62.4-26.4-83.6l-.7-8.5 4.4-3.8c4.3-3.7 16.2-10.5 18.7-10.6.7 0 1.2 1.2 1.2 2.8zm60.9 50.6c2.5 4.1 4.3 7.6 4 7.9-.2.3.5 1.6 1.7 2.9 1.1 1.3 4.2 6.3 6.8 11.1l4.7 8.9-2.6 4.5c-2.4 4-2.8 4.3-4.3 3-1-.7-7.1-5.8-13.7-11.2-6.6-5.4-12.4-10.2-12.9-10.6-1.1-.9 2.5-9.9 3.9-9.9.6 0 3.8 2.6 7.1 5.7 10.3 10 21.4 19.6 21.4 18.5 0-.5-6.4-6.6-14.3-13.4l-14.4-12.4 1.5-3.2c.9-1.8 1.9-3.2 2.2-3.2.4 0 2.6 1.8 5.1 4 5.4 5 9.8 7.5 4.9 2.8-1.9-1.8-4.8-4.3-6.3-5.5-2.2-1.7-2.6-2.7-2.1-4.7.3-1.4 1.1-2.6 1.8-2.6.6 0 3.1 3.4 5.5 7.4zm-1.6 29.6c7 5.8 12.7 11 12.7 11.7 0 .7-.9 1.8-2 2.5s-2 1.8-2 2.5c0 2.6-2.8 1-15-8.7-6.9-5.5-12.8-10-13.2-10-1.2 0-.9-1.5 1.2-6.5 2.3-5.4.3-6.4 18.3 8.5zm5.7 19c0 1.4-5.9 3.2-8.3 2.7-3.8-1-11.4-6.6-16.7-12.3-4.9-5.4-5-5.6-3.5-8.4l1.5-2.9 13.5 10.1c7.4 5.5 13.5 10.4 13.5 10.8z"/><path d="M259 162c-5.2 1-10.3 2.1-11.2 2.5-2.5 1-4.7 4.8-5.4 9.4-.6 3.8-.5 4.1 1.7 4.1 1.3 0 5.8-.9 9.9-2 13.2-3.5 21.9-3.6 33.9-.6 13.5 3.5 14.1 3 4.9-4.2-2.9-2.2-8-5.7-11.2-7.6-6.8-4.1-8.3-4.2-22.6-1.6zM163 166.8c-2.7.4-18 15.7-18 17.9 0 1.5 1.6 1.7 2.5.3 1.7-2.7 11.5-4.3 30.5-4.9l19.5-.6-.2-4.9c-.1-2.7-.7-5.4-1.5-6.1-1.3-1.3-27.5-2.6-32.8-1.7zM264.1 186.1c-3.5 4.8-4.5 8.6-3.6 13.9.9 5.2 3.3 8.1 7.1 8.6 5.8.6 9.4-4.8 9.4-14.2 0-11.9-7-16.5-12.9-8.3zM170.8 187.7c-.9 1-2.1 2.8-2.7 4-1.6 3.1-1.4 12.9.4 16.3 2.8 5.5 8.6 6.6 12.5 2.5 3.2-3.4 4-13.5 1.6-18.7-2.6-5.4-8.8-7.5-11.8-4.1zM228.5 237c-1.1.5-4.2.9-6.8.9-2.9.1-4.6.5-4.2 1.1 1.3 2.1 13.5.6 14.3-1.8.4-1.4-.4-1.4-3.3-.2zM273 253c0 3.9 1.3 5.4 2.3 2.7.7-1.8-.3-6.7-1.4-6.7-.5 0-.9 1.8-.9 4zM246.1 259.1c-11.5 5.2-16.5 6.4-43.8 10.5-1.8.3-3.3.9-3.3 1.4 0 1.6 8.1 7.3 13.8 9.6 15.9 6.5 33.8-.8 38.8-15.8.8-2.6 1.4-5.6 1.2-6.7-.3-1.8-.6-1.8-6.7 1zM284 449.5c-2.4 1.3-2.2 1.4 2.7 1.2 3.1-.1 5.5-.7 5.8-1.5.6-1.7-5.3-1.5-8.5.3z"/></svg>